<mxfile host="app.diagrams.net" modified="2020-08-24T22:23:43.792Z" agent="5.0 (Macintosh; Intel Mac OS X 10_15_3) AppleWebKit/537.36 (KHTML, like Gecko) Chrome/84.0.4147.125 Safari/537.36" etag="7QiAwQkrVb9Hx_WGqMD1" version="13.6.3" type="github">
  <diagram id="TMcSaBcEtLEompuHRcwE" name="Page-1">
    <mxGraphModel dx="1186" dy="796" grid="0" gridSize="10" guides="1" tooltips="1" connect="1" arrows="1" fold="1" page="1" pageScale="1" pageWidth="850" pageHeight="1100" background="#FFFFFF" math="0" shadow="0">
      <root>
        <mxCell id="0" />
        <mxCell id="1" parent="0" />
        <mxCell id="FlTbFpx93Kr1bxc1OKn0-32" style="edgeStyle=orthogonalEdgeStyle;rounded=0;orthogonalLoop=1;jettySize=auto;html=1;exitX=0;exitY=0.5;exitDx=0;exitDy=0;" edge="1" parent="1" source="FlTbFpx93Kr1bxc1OKn0-29" target="FlTbFpx93Kr1bxc1OKn0-8">
          <mxGeometry relative="1" as="geometry" />
        </mxCell>
        <mxCell id="FlTbFpx93Kr1bxc1OKn0-35" style="edgeStyle=orthogonalEdgeStyle;rounded=0;orthogonalLoop=1;jettySize=auto;html=1;entryX=0.5;entryY=0;entryDx=0;entryDy=0;" edge="1" parent="1" source="FlTbFpx93Kr1bxc1OKn0-3" target="FlTbFpx93Kr1bxc1OKn0-29">
          <mxGeometry relative="1" as="geometry" />
        </mxCell>
        <mxCell id="FlTbFpx93Kr1bxc1OKn0-63" value="Subscribe" style="edgeLabel;html=1;align=center;verticalAlign=middle;resizable=0;points=[];" vertex="1" connectable="0" parent="FlTbFpx93Kr1bxc1OKn0-35">
          <mxGeometry x="-0.5186" relative="1" as="geometry">
            <mxPoint x="181.25" as="offset" />
          </mxGeometry>
        </mxCell>
        <mxCell id="FlTbFpx93Kr1bxc1OKn0-95" style="edgeStyle=orthogonalEdgeStyle;rounded=0;orthogonalLoop=1;jettySize=auto;html=1;exitX=0;exitY=0;exitDx=0;exitDy=0;" edge="1" parent="1" source="FlTbFpx93Kr1bxc1OKn0-29">
          <mxGeometry relative="1" as="geometry">
            <mxPoint x="463" y="321" as="targetPoint" />
          </mxGeometry>
        </mxCell>
        <mxCell id="FlTbFpx93Kr1bxc1OKn0-97" value="Results" style="edgeLabel;html=1;align=center;verticalAlign=middle;resizable=0;points=[];" vertex="1" connectable="0" parent="FlTbFpx93Kr1bxc1OKn0-95">
          <mxGeometry x="-0.5005" y="-1" relative="1" as="geometry">
            <mxPoint as="offset" />
          </mxGeometry>
        </mxCell>
        <mxCell id="FlTbFpx93Kr1bxc1OKn0-29" value="" style="rounded=1;whiteSpace=wrap;html=1;" vertex="1" parent="1">
          <mxGeometry x="569.75" y="508.5" width="199" height="140.5" as="geometry" />
        </mxCell>
        <mxCell id="FlTbFpx93Kr1bxc1OKn0-31" style="edgeStyle=orthogonalEdgeStyle;rounded=0;orthogonalLoop=1;jettySize=auto;html=1;exitX=1;exitY=0.5;exitDx=0;exitDy=0;" edge="1" parent="1" source="FlTbFpx93Kr1bxc1OKn0-28" target="FlTbFpx93Kr1bxc1OKn0-8">
          <mxGeometry relative="1" as="geometry" />
        </mxCell>
        <mxCell id="FlTbFpx93Kr1bxc1OKn0-89" value="Results" style="edgeLabel;html=1;align=center;verticalAlign=middle;resizable=0;points=[];" vertex="1" connectable="0" parent="FlTbFpx93Kr1bxc1OKn0-31">
          <mxGeometry x="0.0912" relative="1" as="geometry">
            <mxPoint x="-7.38" y="1.2" as="offset" />
          </mxGeometry>
        </mxCell>
        <mxCell id="FlTbFpx93Kr1bxc1OKn0-34" style="edgeStyle=orthogonalEdgeStyle;rounded=0;orthogonalLoop=1;jettySize=auto;html=1;entryX=0.5;entryY=0;entryDx=0;entryDy=0;" edge="1" parent="1" source="FlTbFpx93Kr1bxc1OKn0-3" target="FlTbFpx93Kr1bxc1OKn0-28">
          <mxGeometry relative="1" as="geometry" />
        </mxCell>
        <mxCell id="FlTbFpx93Kr1bxc1OKn0-64" value="Subscribe" style="edgeLabel;html=1;align=center;verticalAlign=middle;resizable=0;points=[];" vertex="1" connectable="0" parent="FlTbFpx93Kr1bxc1OKn0-34">
          <mxGeometry x="-0.212" relative="1" as="geometry">
            <mxPoint as="offset" />
          </mxGeometry>
        </mxCell>
        <mxCell id="FlTbFpx93Kr1bxc1OKn0-94" style="edgeStyle=orthogonalEdgeStyle;rounded=0;orthogonalLoop=1;jettySize=auto;html=1;exitX=1;exitY=0;exitDx=0;exitDy=0;" edge="1" parent="1" source="FlTbFpx93Kr1bxc1OKn0-28">
          <mxGeometry relative="1" as="geometry">
            <mxPoint x="430" y="323" as="targetPoint" />
          </mxGeometry>
        </mxCell>
        <mxCell id="FlTbFpx93Kr1bxc1OKn0-96" value="Results" style="edgeLabel;html=1;align=center;verticalAlign=middle;resizable=0;points=[];" vertex="1" connectable="0" parent="FlTbFpx93Kr1bxc1OKn0-94">
          <mxGeometry x="-0.3839" y="-3" relative="1" as="geometry">
            <mxPoint y="-1" as="offset" />
          </mxGeometry>
        </mxCell>
        <mxCell id="FlTbFpx93Kr1bxc1OKn0-28" value="" style="rounded=1;whiteSpace=wrap;html=1;" vertex="1" parent="1">
          <mxGeometry x="181.38" y="508.5" width="202" height="140.5" as="geometry" />
        </mxCell>
        <mxCell id="FlTbFpx93Kr1bxc1OKn0-3" value="Amazon SNS" style="outlineConnect=0;fontColor=#232F3E;gradientColor=none;strokeColor=#ffffff;fillColor=#232F3E;dashed=0;verticalLabelPosition=middle;verticalAlign=bottom;align=center;html=1;whiteSpace=wrap;fontSize=10;fontStyle=1;spacing=3;shape=mxgraph.aws4.productIcon;prIcon=mxgraph.aws4.sns;" vertex="1" parent="1">
          <mxGeometry x="253.5" y="334" width="60.25" height="88" as="geometry" />
        </mxCell>
        <mxCell id="FlTbFpx93Kr1bxc1OKn0-44" style="edgeStyle=orthogonalEdgeStyle;rounded=0;orthogonalLoop=1;jettySize=auto;html=1;entryX=0.714;entryY=-0.004;entryDx=0;entryDy=0;entryPerimeter=0;" edge="1" parent="1" source="FlTbFpx93Kr1bxc1OKn0-4" target="FlTbFpx93Kr1bxc1OKn0-28">
          <mxGeometry relative="1" as="geometry" />
        </mxCell>
        <mxCell id="FlTbFpx93Kr1bxc1OKn0-46" style="edgeStyle=orthogonalEdgeStyle;rounded=0;orthogonalLoop=1;jettySize=auto;html=1;entryX=0.378;entryY=0.004;entryDx=0;entryDy=0;entryPerimeter=0;" edge="1" parent="1" source="FlTbFpx93Kr1bxc1OKn0-4" target="FlTbFpx93Kr1bxc1OKn0-29">
          <mxGeometry relative="1" as="geometry" />
        </mxCell>
        <mxCell id="FlTbFpx93Kr1bxc1OKn0-4" value="Amazon S3" style="outlineConnect=0;fontColor=#232F3E;gradientColor=none;strokeColor=#ffffff;fillColor=#232F3E;dashed=0;verticalLabelPosition=middle;verticalAlign=bottom;align=center;html=1;whiteSpace=wrap;fontSize=10;fontStyle=1;spacing=3;shape=mxgraph.aws4.productIcon;prIcon=mxgraph.aws4.s3;" vertex="1" parent="1">
          <mxGeometry x="420.99" y="439.75" width="56" height="84" as="geometry" />
        </mxCell>
        <mxCell id="FlTbFpx93Kr1bxc1OKn0-83" style="edgeStyle=orthogonalEdgeStyle;rounded=0;orthogonalLoop=1;jettySize=auto;html=1;" edge="1" parent="1" source="FlTbFpx93Kr1bxc1OKn0-5" target="FlTbFpx93Kr1bxc1OKn0-4">
          <mxGeometry relative="1" as="geometry" />
        </mxCell>
        <mxCell id="FlTbFpx93Kr1bxc1OKn0-6" value="Amazon CloudWatch" style="outlineConnect=0;fontColor=#232F3E;gradientColor=none;strokeColor=#ffffff;fillColor=#232F3E;dashed=0;verticalLabelPosition=middle;verticalAlign=bottom;align=center;html=1;whiteSpace=wrap;fontSize=10;fontStyle=1;spacing=3;shape=mxgraph.aws4.productIcon;prIcon=mxgraph.aws4.cloudwatch;" vertex="1" parent="1">
          <mxGeometry x="653" y="233" width="59" height="89" as="geometry" />
        </mxCell>
        <mxCell id="FlTbFpx93Kr1bxc1OKn0-8" value="Amazon DynamoDB" style="outlineConnect=0;fontColor=#232F3E;gradientColor=none;strokeColor=#ffffff;fillColor=#232F3E;dashed=0;verticalLabelPosition=middle;verticalAlign=bottom;align=center;html=1;whiteSpace=wrap;fontSize=10;fontStyle=1;spacing=3;shape=mxgraph.aws4.productIcon;prIcon=mxgraph.aws4.dynamodb;" vertex="1" parent="1">
          <mxGeometry x="445" y="538.88" width="67" height="79.75" as="geometry" />
        </mxCell>
        <mxCell id="FlTbFpx93Kr1bxc1OKn0-9" value="Amazon ElastiCache for Redis" style="outlineConnect=0;fontColor=#232F3E;gradientColor=none;strokeColor=#ffffff;fillColor=#232F3E;dashed=0;verticalLabelPosition=middle;verticalAlign=bottom;align=center;html=1;whiteSpace=wrap;fontSize=10;fontStyle=1;spacing=3;shape=mxgraph.aws4.productIcon;prIcon=mxgraph.aws4.elasticache_for_redis;" vertex="1" parent="1">
          <mxGeometry x="233" y="214.37" width="62.25" height="100" as="geometry" />
        </mxCell>
        <mxCell id="FlTbFpx93Kr1bxc1OKn0-10" value="" style="shape=image;html=1;verticalAlign=top;verticalLabelPosition=bottom;labelBackgroundColor=#ffffff;imageAspect=0;aspect=fixed;image=https://cdn4.iconfinder.com/data/icons/social-network-round-gloss-shine/128/docker-icon_copy.png" vertex="1" parent="1">
          <mxGeometry x="588.75" y="518" width="62" height="62" as="geometry" />
        </mxCell>
        <mxCell id="FlTbFpx93Kr1bxc1OKn0-11" value="" style="shape=image;html=1;verticalAlign=top;verticalLabelPosition=bottom;labelBackgroundColor=#ffffff;imageAspect=0;aspect=fixed;image=https://cdn1.iconfinder.com/data/icons/social-media-2106/24/social_media_social_media_logo_docker-128.png" vertex="1" parent="1">
          <mxGeometry x="245.75" y="581" width="68" height="68" as="geometry" />
        </mxCell>
        <mxCell id="FlTbFpx93Kr1bxc1OKn0-70" style="edgeStyle=orthogonalEdgeStyle;rounded=0;orthogonalLoop=1;jettySize=auto;html=1;" edge="1" parent="1" source="FlTbFpx93Kr1bxc1OKn0-12" target="FlTbFpx93Kr1bxc1OKn0-14">
          <mxGeometry relative="1" as="geometry" />
        </mxCell>
        <mxCell id="FlTbFpx93Kr1bxc1OKn0-12" value="User" style="html=1;strokeColor=none;fillColor=#0079D6;labelPosition=center;verticalLabelPosition=middle;verticalAlign=top;align=center;fontSize=12;outlineConnect=0;spacingTop=-6;fontColor=#FFFFFF;shape=mxgraph.sitemap.user;" vertex="1" parent="1">
          <mxGeometry x="228" y="107" width="79.63" height="49" as="geometry" />
        </mxCell>
        <mxCell id="FlTbFpx93Kr1bxc1OKn0-38" style="edgeStyle=orthogonalEdgeStyle;rounded=0;orthogonalLoop=1;jettySize=auto;html=1;" edge="1" parent="1" source="FlTbFpx93Kr1bxc1OKn0-5" target="FlTbFpx93Kr1bxc1OKn0-9">
          <mxGeometry relative="1" as="geometry">
            <mxPoint x="314.75" y="153.34500000000003" as="targetPoint" />
            <mxPoint x="399" y="281" as="sourcePoint" />
            <Array as="points">
              <mxPoint x="400" y="264" />
              <mxPoint x="400" y="264" />
            </Array>
          </mxGeometry>
        </mxCell>
        <mxCell id="FlTbFpx93Kr1bxc1OKn0-79" value="Session&lt;br&gt;Mgmt" style="edgeLabel;html=1;align=center;verticalAlign=middle;resizable=0;points=[];" vertex="1" connectable="0" parent="FlTbFpx93Kr1bxc1OKn0-38">
          <mxGeometry x="0.0501" y="-3" relative="1" as="geometry">
            <mxPoint as="offset" />
          </mxGeometry>
        </mxCell>
        <mxCell id="FlTbFpx93Kr1bxc1OKn0-74" value="" style="edgeStyle=orthogonalEdgeStyle;rounded=0;orthogonalLoop=1;jettySize=auto;html=1;" edge="1" parent="1" source="FlTbFpx93Kr1bxc1OKn0-14" target="FlTbFpx93Kr1bxc1OKn0-5">
          <mxGeometry relative="1" as="geometry" />
        </mxCell>
        <mxCell id="FlTbFpx93Kr1bxc1OKn0-14" value="" style="verticalLabelPosition=bottom;html=1;verticalAlign=top;strokeWidth=1;align=center;outlineConnect=0;dashed=0;outlineConnect=0;shape=mxgraph.aws3d.elasticLoadBalancing;fillColor=#ECECEC;strokeColor=#5E5E5E;aspect=fixed;" vertex="1" parent="1">
          <mxGeometry x="415.24" y="126" width="67.5" height="64.69" as="geometry" />
        </mxCell>
        <mxCell id="FlTbFpx93Kr1bxc1OKn0-24" value="" style="shape=image;html=1;verticalAlign=top;verticalLabelPosition=bottom;labelBackgroundColor=#ffffff;imageAspect=0;aspect=fixed;image=https://cdn4.iconfinder.com/data/icons/social-network-round-gloss-shine/128/docker-icon_copy.png" vertex="1" parent="1">
          <mxGeometry x="638.75" y="580" width="66" height="66" as="geometry" />
        </mxCell>
        <mxCell id="FlTbFpx93Kr1bxc1OKn0-25" value="" style="shape=image;html=1;verticalAlign=top;verticalLabelPosition=bottom;labelBackgroundColor=#ffffff;imageAspect=0;aspect=fixed;image=https://cdn4.iconfinder.com/data/icons/social-network-round-gloss-shine/128/docker-icon_copy.png" vertex="1" parent="1">
          <mxGeometry x="691.75" y="515" width="65" height="65" as="geometry" />
        </mxCell>
        <mxCell id="FlTbFpx93Kr1bxc1OKn0-26" value="" style="shape=image;html=1;verticalAlign=top;verticalLabelPosition=bottom;labelBackgroundColor=#ffffff;imageAspect=0;aspect=fixed;image=https://cdn1.iconfinder.com/data/icons/social-media-2106/24/social_media_social_media_logo_docker-128.png" vertex="1" parent="1">
          <mxGeometry x="203.75" y="518" width="68" height="68" as="geometry" />
        </mxCell>
        <mxCell id="FlTbFpx93Kr1bxc1OKn0-27" value="" style="shape=image;html=1;verticalAlign=top;verticalLabelPosition=bottom;labelBackgroundColor=#ffffff;imageAspect=0;aspect=fixed;image=https://cdn1.iconfinder.com/data/icons/social-media-2106/24/social_media_social_media_logo_docker-128.png" vertex="1" parent="1">
          <mxGeometry x="309.75" y="518" width="68" height="68" as="geometry" />
        </mxCell>
        <mxCell id="FlTbFpx93Kr1bxc1OKn0-52" value="" style="endArrow=none;dashed=1;html=1;dashPattern=1 3;strokeWidth=2;" edge="1" parent="1">
          <mxGeometry width="50" height="50" relative="1" as="geometry">
            <mxPoint x="701" y="508" as="sourcePoint" />
            <mxPoint x="701.25" y="322" as="targetPoint" />
          </mxGeometry>
        </mxCell>
        <mxCell id="FlTbFpx93Kr1bxc1OKn0-59" value="Logs" style="edgeLabel;html=1;align=center;verticalAlign=middle;resizable=0;points=[];" vertex="1" connectable="0" parent="FlTbFpx93Kr1bxc1OKn0-52">
          <mxGeometry x="-0.172" relative="1" as="geometry">
            <mxPoint as="offset" />
          </mxGeometry>
        </mxCell>
        <mxCell id="FlTbFpx93Kr1bxc1OKn0-53" value="" style="endArrow=none;dashed=1;html=1;dashPattern=1 3;strokeWidth=2;" edge="1" parent="1">
          <mxGeometry width="50" height="50" relative="1" as="geometry">
            <mxPoint x="652" y="262" as="sourcePoint" />
            <mxPoint x="444" y="262" as="targetPoint" />
          </mxGeometry>
        </mxCell>
        <mxCell id="FlTbFpx93Kr1bxc1OKn0-80" value="Logs" style="edgeLabel;html=1;align=center;verticalAlign=middle;resizable=0;points=[];" vertex="1" connectable="0" parent="FlTbFpx93Kr1bxc1OKn0-53">
          <mxGeometry x="-0.0673" y="-1" relative="1" as="geometry">
            <mxPoint as="offset" />
          </mxGeometry>
        </mxCell>
        <mxCell id="FlTbFpx93Kr1bxc1OKn0-55" value="" style="endArrow=none;dashed=1;html=1;dashPattern=1 3;strokeWidth=2;entryX=0.5;entryY=1;entryDx=0;entryDy=0;" edge="1" parent="1" source="FlTbFpx93Kr1bxc1OKn0-6" target="FlTbFpx93Kr1bxc1OKn0-11">
          <mxGeometry width="50" height="50" relative="1" as="geometry">
            <mxPoint x="698" y="324" as="sourcePoint" />
            <mxPoint x="266" y="695" as="targetPoint" />
            <Array as="points">
              <mxPoint x="684" y="695" />
              <mxPoint x="280" y="695" />
            </Array>
          </mxGeometry>
        </mxCell>
        <mxCell id="FlTbFpx93Kr1bxc1OKn0-58" value="Logs" style="edgeLabel;html=1;align=center;verticalAlign=middle;resizable=0;points=[];" vertex="1" connectable="0" parent="FlTbFpx93Kr1bxc1OKn0-55">
          <mxGeometry x="0.5018" y="-1" relative="1" as="geometry">
            <mxPoint as="offset" />
          </mxGeometry>
        </mxCell>
        <mxCell id="FlTbFpx93Kr1bxc1OKn0-56" value="Fargate - Windows AV Containers" style="text;html=1;align=center;verticalAlign=middle;resizable=0;points=[];autosize=1;" vertex="1" parent="1">
          <mxGeometry x="582" y="651" width="190" height="18" as="geometry" />
        </mxCell>
        <mxCell id="FlTbFpx93Kr1bxc1OKn0-57" value="Fargate - Linux AV Containers" style="text;html=1;align=center;verticalAlign=middle;resizable=0;points=[];autosize=1;" vertex="1" parent="1">
          <mxGeometry x="191" y="649" width="170" height="18" as="geometry" />
        </mxCell>
        <mxCell id="FlTbFpx93Kr1bxc1OKn0-67" value="Cloudwatch Logs and Metrics" style="text;html=1;align=center;verticalAlign=middle;resizable=0;points=[];autosize=1;" vertex="1" parent="1">
          <mxGeometry x="595" y="203" width="167" height="18" as="geometry" />
        </mxCell>
        <mxCell id="FlTbFpx93Kr1bxc1OKn0-68" value="Load Balancer" style="text;html=1;align=center;verticalAlign=middle;resizable=0;points=[];autosize=1;" vertex="1" parent="1">
          <mxGeometry x="410" y="108" width="87" height="18" as="geometry" />
        </mxCell>
        <mxCell id="FlTbFpx93Kr1bxc1OKn0-76" style="edgeStyle=orthogonalEdgeStyle;rounded=0;orthogonalLoop=1;jettySize=auto;html=1;" edge="1" parent="1" source="FlTbFpx93Kr1bxc1OKn0-75" target="FlTbFpx93Kr1bxc1OKn0-14">
          <mxGeometry relative="1" as="geometry" />
        </mxCell>
        <mxCell id="FlTbFpx93Kr1bxc1OKn0-75" value="" style="aspect=fixed;pointerEvents=1;shadow=0;dashed=0;html=1;strokeColor=none;labelPosition=center;verticalLabelPosition=bottom;verticalAlign=top;align=center;shape=mxgraph.mscae.enterprise.user_permissions;fillColor=#0078D7;" vertex="1" parent="1">
          <mxGeometry x="596.25" y="103" width="47" height="50" as="geometry" />
        </mxCell>
        <mxCell id="FlTbFpx93Kr1bxc1OKn0-77" value="API User" style="text;html=1;align=center;verticalAlign=middle;resizable=0;points=[];autosize=1;" vertex="1" parent="1">
          <mxGeometry x="579" y="79" width="58" height="18" as="geometry" />
        </mxCell>
        <mxCell id="FlTbFpx93Kr1bxc1OKn0-78" value="Web UI" style="text;html=1;align=center;verticalAlign=middle;resizable=0;points=[];autosize=1;" vertex="1" parent="1">
          <mxGeometry x="242.82" y="79" width="50" height="18" as="geometry" />
        </mxCell>
        <mxCell id="FlTbFpx93Kr1bxc1OKn0-86" style="edgeStyle=orthogonalEdgeStyle;rounded=0;orthogonalLoop=1;jettySize=auto;html=1;exitX=0.995;exitY=0.63;exitDx=0;exitDy=0;exitPerimeter=0;" edge="1" parent="1" source="FlTbFpx93Kr1bxc1OKn0-5">
          <mxGeometry relative="1" as="geometry">
            <mxPoint x="502" y="536" as="targetPoint" />
            <Array as="points">
              <mxPoint x="481" y="290" />
              <mxPoint x="502" y="290" />
              <mxPoint x="502" y="528" />
            </Array>
          </mxGeometry>
        </mxCell>
        <mxCell id="FlTbFpx93Kr1bxc1OKn0-98" value="MetaData" style="edgeLabel;html=1;align=center;verticalAlign=middle;resizable=0;points=[];" vertex="1" connectable="0" parent="FlTbFpx93Kr1bxc1OKn0-86">
          <mxGeometry x="0.3962" y="2" relative="1" as="geometry">
            <mxPoint x="7.99" as="offset" />
          </mxGeometry>
        </mxCell>
        <mxCell id="FlTbFpx93Kr1bxc1OKn0-87" style="edgeStyle=orthogonalEdgeStyle;rounded=0;orthogonalLoop=1;jettySize=auto;html=1;" edge="1" parent="1" target="FlTbFpx93Kr1bxc1OKn0-3">
          <mxGeometry relative="1" as="geometry">
            <mxPoint x="435" y="308" as="sourcePoint" />
            <Array as="points">
              <mxPoint x="284" y="314" />
            </Array>
          </mxGeometry>
        </mxCell>
        <mxCell id="FlTbFpx93Kr1bxc1OKn0-88" value="Publish" style="edgeLabel;html=1;align=center;verticalAlign=middle;resizable=0;points=[];" vertex="1" connectable="0" parent="FlTbFpx93Kr1bxc1OKn0-87">
          <mxGeometry x="-0.0282" y="-2" relative="1" as="geometry">
            <mxPoint as="offset" />
          </mxGeometry>
        </mxCell>
        <mxCell id="FlTbFpx93Kr1bxc1OKn0-5" value="" style="html=1;dashed=0;whitespace=wrap;fillColor=#2875E2;strokeColor=#ffffff;points=[[0.005,0.63,0],[0.1,0.2,0],[0.9,0.2,0],[0.5,0,0],[0.995,0.63,0],[0.72,0.99,0],[0.5,1,0],[0.28,0.99,0]];shape=mxgraph.kubernetes.icon;prIcon=api" vertex="1" parent="1">
          <mxGeometry x="417.06" y="241" width="63.87" height="79.38" as="geometry" />
        </mxCell>
        <mxCell id="FlTbFpx93Kr1bxc1OKn0-90" value="Fargate Cluster" style="text;html=1;align=center;verticalAlign=middle;resizable=0;points=[];autosize=1;" vertex="1" parent="1">
          <mxGeometry x="406.99" y="235" width="93" height="18" as="geometry" />
        </mxCell>
      </root>
    </mxGraphModel>
  </diagram>
</mxfile>
